<svg width="1050" height="472" viewBox="0 0 1050 472" fill="none" xmlns="http://www.w3.org/2000/svg">
<path d="M669.307 115.085C679.983 132.859 687.284 151.818 691.381 171.409C695.747 192.283 696.491 213.859 693.821 235.459C690.849 259.512 685.853 287.985 678.642 316.71C672.63 340.648 665.055 364.779 655.805 386.705C654.259 390.369 652.714 393.868 651.183 397.185C649.678 400.431 648.075 403.717 646.375 407.045C637.582 424.249 627.55 439.285 616.189 450.685C605.716 461.191 594.119 468.63 581.326 471.9C579.603 472.338 577.852 471.297 577.411 469.567C577.256 468.964 577.287 468.354 577.458 467.805C583.828 444.213 592.049 413.021 595.415 381.872C598.758 350.956 597.361 320.03 584.629 296.638C577.492 283.529 569.288 274.761 560.757 270.272C556.216 267.875 551.594 266.706 546.999 266.749C542.404 266.793 537.795 268.05 533.287 270.508C524.669 275.21 516.449 284.28 509.423 297.652C497.102 321.099 495.857 351.856 499.246 382.543C502.673 413.543 510.844 444.509 517.169 467.943C517.627 469.662 516.604 471.432 514.89 471.89C514.335 472.035 513.779 472.032 513.264 471.9C486.208 464.994 464.512 439.393 447.552 405.75C425.434 361.888 411.245 304.136 403.798 256.883C402.027 245.648 402.229 235.2 404.087 225.593C393.355 217.588 386.828 206.825 385.329 194.58C383.835 182.351 387.386 168.716 396.829 154.991C397.361 154.219 397.873 153.494 398.368 152.82C399.415 151.384 401.428 151.071 402.862 152.126C402.97 152.203 403.064 152.284 403.155 152.368L433.076 178.181C441.148 171.591 450.48 166.198 460.634 162.079C472.346 157.333 485.168 154.29 498.442 153.056C498.566 153.036 498.694 153.026 498.822 153.022C507.47 152.24 516.307 152.234 525.144 153.026C539.694 154.337 550.702 157.617 564.097 161.284C573.011 163.728 578.98 163.583 583.774 160.027C590.355 155.142 595.704 143.858 603.652 124.385C605.342 120.242 606.258 117.387 606.524 114.91C606.611 114.131 606.631 113.373 606.588 112.604C599.42 116.936 592.055 115.78 576.057 113.265L571.092 112.5V112.497C570.644 112.429 570.2 112.264 569.792 111.998C568.311 111.013 567.904 109.015 568.883 107.532C569.631 106.396 570.355 105.31 571.065 104.265C562.309 109.972 553.27 114.93 544.241 118.979C522.544 128.706 500.855 133.179 483.366 130.069C463.332 126.502 446.113 115.537 431.799 101.849C411.022 81.9827 396.381 56.3684 388.234 39.5557L394.024 36.758C401.239 51.6361 415.303 68.989 434.25 83.0275C449.81 94.5515 468.641 103.804 489.638 107.546C507.312 110.691 526.527 109.932 546.639 103.343C564.288 97.5551 582.646 87.2642 601.279 71.1893C601.787 69.5275 602.416 67.8422 603.204 66.1332C608.789 53.9621 625.958 47.4463 640.036 42.1033L641.359 41.6044C651.923 37.5831 653.525 34.7046 658.454 25.816C658.858 25.0811 659.299 24.2924 660.302 22.5093L660.773 21.6734C667.075 10.4756 672.98 0 684.234 0C685.251 0 686.16 0.471901 686.749 1.21341C696.585 11.9021 698.895 28.0573 697.72 44.6646C696.565 60.888 692.084 77.5824 688.135 89.7476C685.338 98.3835 681.369 105.152 675.707 110.332C673.761 112.105 671.633 113.686 669.297 115.078L669.307 115.085ZM635.559 69.7965C633.788 69.5842 632.529 67.9797 632.735 66.2101C632.944 64.4405 634.546 63.1765 636.31 63.3889C638.959 63.7091 639.659 62.4114 640.316 61.2013C641.895 58.289 643.376 55.552 648.944 56.2868C650.705 56.5194 651.947 58.1339 651.715 59.8901C651.489 61.653 649.87 62.8968 648.116 62.6641C646.945 62.5158 646.48 63.3652 645.988 64.272C644.319 67.3561 642.538 70.6392 635.559 69.7965ZM641.336 374.615C641.767 373.59 642.942 373.112 643.962 373.543C644.985 373.975 645.463 375.151 645.032 376.176C643.511 379.786 641.972 383.271 640.417 386.619C638.902 389.892 637.31 393.168 635.64 396.434C635.132 397.418 633.926 397.813 632.937 397.307C631.954 396.798 631.56 395.591 632.065 394.6C633.644 391.516 635.212 388.29 636.771 384.93C638.363 381.485 639.885 378.044 641.336 374.612V374.615ZM514.539 159.745C526.786 174.835 533.613 188.042 533.835 201.104C538.68 202.631 544.884 203.766 552.957 205.007C553.691 188.477 551.109 178.682 545.144 172.433C538.953 165.937 528.706 162.816 514.543 159.742L514.539 159.745ZM533.38 207.689C531.334 220.781 522.406 233.613 505.398 247.899C504.032 249.038 502.005 248.859 500.867 247.494C500.776 247.386 500.692 247.275 500.622 247.16C488.489 230.041 480.931 218.732 478.942 207.74C473.229 209.364 466.105 210.561 456.989 211.916V211.913C456.908 211.926 456.821 211.936 456.737 211.943C454.966 212.058 453.431 210.716 453.31 208.943C451.926 188.567 454.902 176.416 462.362 168.346C444.284 175.806 429.109 187.529 419.636 203.014C410.809 217.444 406.89 235.208 410.152 255.904C417.511 302.618 431.512 359.65 453.303 402.855C468.287 432.578 486.896 455.654 509.435 463.953C503.321 441.116 496.06 412.297 492.859 383.248C489.344 351.452 490.711 319.428 503.736 294.646C511.371 280.122 520.5 270.161 530.222 264.856C535.666 261.883 541.295 260.367 546.96 260.313C552.626 260.259 558.278 261.671 563.769 264.566C573.383 269.636 582.51 279.276 590.28 293.555C603.756 318.306 605.287 350.513 601.824 382.554C598.652 411.845 591.33 440.941 585.17 463.956C594.687 460.447 603.501 454.306 611.637 446.145C622.514 435.228 632.172 420.743 640.672 404.119C642.217 401.096 643.776 397.877 645.348 394.489C646.954 391.021 648.472 387.593 649.899 384.212C658.985 362.68 666.452 338.853 672.403 315.15C679.54 286.735 684.483 258.533 687.432 234.685C690.017 213.753 689.31 192.882 685.095 172.732C681.103 153.663 673.976 135.222 663.543 117.968C660.49 119.228 657.144 120.26 653.471 121.065C651.734 121.443 650.02 120.337 649.643 118.591C649.266 116.852 650.37 115.136 652.114 114.759C660.338 112.952 666.613 109.976 671.39 105.601C676.174 101.233 679.57 95.3575 682.031 87.77C685.859 75.9656 690.209 59.8104 691.313 44.2205C691.912 35.8173 691.569 27.5924 689.68 20.3795C686.486 21.7951 683.234 22.4322 679.995 22.5671C676.003 22.7356 672.094 22.1289 668.384 21.3098C667.718 22.4659 667.051 23.6423 666.381 24.8322L665.913 25.6681C665.59 26.2445 664.813 27.6434 664.085 28.9545C658.299 39.3939 656.42 42.7808 643.641 47.6346L642.325 48.1368C629.357 53.0546 613.542 59.0576 609.068 68.8092C607.94 71.2631 607.186 73.6597 606.728 76.0225C606.506 77.1585 606.351 78.2843 606.263 79.3966C608.876 79.1843 611.754 79.0292 615 78.8506L616.447 78.7731C618.225 78.6821 619.733 80.0472 619.827 81.8236C619.915 83.6033 618.555 85.1134 616.777 85.2078L615.329 85.2853C610.808 85.5314 607.068 85.7336 603.82 86.1583C603.574 86.2257 603.319 86.2662 603.053 86.2695C603.032 86.2729 603.016 86.2729 602.995 86.2729C592.855 87.7628 587.449 91.7537 577.074 106.912C601.224 110.7 602.851 110.95 620.127 88.8884C621.218 87.4861 623.234 87.24 624.635 88.3322C626.035 89.4276 626.281 91.4501 625.19 92.8456C621.295 97.8241 618.101 101.795 615.269 104.936C612.768 107.704 613.333 112.005 612.943 115.592C612.606 118.713 611.549 122.07 609.617 126.806C601.221 147.377 595.434 159.4 587.624 165.198C584.988 167.156 582.217 168.393 579.154 168.986C590.549 175.114 601.167 182.998 610.479 192.736C611.711 194.017 611.67 196.049 610.391 197.286C609.109 198.52 607.075 198.476 605.846 197.195C588.27 178.822 565.78 167.385 542.315 162.181C545.15 163.819 547.644 165.723 549.809 167.995C557.508 176.065 560.592 188.266 559.184 208.939C559.063 210.712 557.535 212.057 555.757 211.939C555.67 211.935 555.589 211.925 555.505 211.908V211.912C546.297 210.543 539.124 209.337 533.381 207.688L533.38 207.689ZM478.43 201.17C478.723 189.427 485.597 177.646 500.268 159.353C499.999 159.377 499.723 159.397 499.453 159.428C484.506 162.603 473.761 165.714 467.351 172.435C461.386 178.684 458.804 188.48 459.538 205.009C467.486 203.786 473.62 202.667 478.434 201.173L478.43 201.17ZM527.226 198.285C526.193 188.601 520.934 178.458 512.077 166.995C515.404 181.215 518.029 189.565 522.641 194.621C523.941 196.047 525.449 197.243 527.226 198.285ZM499.514 170.766C490.845 182.267 486.204 190.673 485.102 198.379C486.947 197.321 488.506 196.094 489.845 194.624C494.033 190.033 496.588 182.725 499.514 170.766ZM485.102 205.579C486.459 215.02 493.037 225.251 503.914 240.682C518.446 227.947 525.859 216.699 527.189 205.495C523.453 203.844 520.456 201.764 517.905 198.966C512.532 193.084 509.637 184.479 506.244 170.248C502.847 184.479 499.945 193.085 494.579 198.966C491.984 201.811 488.927 203.915 485.1 205.583L485.102 205.579ZM471.492 90.9258C472.781 92.1528 472.835 94.1921 471.606 95.4763C470.381 96.7672 468.347 96.8212 467.062 95.5909C457.1 86.0653 451.502 73.4593 448.563 60.4174C444.325 41.6088 445.634 21.8908 447.307 9.49955L453.683 10.3557C452.226 21.1083 453.626 35.7102 458.901 50.2949C463.234 62.278 470.179 74.1963 480.301 83.8737C481.729 85.2422 483.207 86.5501 484.728 87.7972C486.24 89.0309 487.802 90.2073 489.428 91.3399C490.885 92.3511 491.252 94.3499 490.242 95.8162C489.233 97.279 487.23 97.6464 485.772 96.6386C484.001 95.4049 482.301 94.1274 480.672 92.7927C478.989 91.414 477.386 89.995 475.864 88.5456C465.971 79.0804 458.911 67.6807 454.219 56.0618C454.41 57.046 454.616 58.0269 454.831 59.0078C457.521 70.933 462.577 82.4001 471.492 90.9247L471.492 90.9258ZM541.635 113.101C544.55 111.79 547.475 110.381 550.384 108.881C549.801 109.08 549.222 109.272 548.637 109.464C527.435 116.415 507.176 117.214 488.536 113.897C466.486 109.967 446.732 100.269 430.425 88.1955C427.422 85.9675 424.534 83.662 421.766 81.2957C426.193 86.8102 431.013 92.1864 436.235 97.1851C449.724 110.081 465.856 120.399 484.476 123.712C500.682 126.598 521.062 122.32 541.631 113.101L541.635 113.101ZM687.573 14.2393C686.347 11.4281 684.802 8.84616 682.89 6.56422C678.628 7.1878 675.184 10.7203 671.962 15.4762C674.524 15.9481 677.14 16.2447 679.739 16.1335C682.358 16.0223 684.994 15.4797 687.573 14.2393ZM391.534 186.586L411.689 203.978C412.467 202.509 413.282 201.069 414.147 199.657C415.073 198.144 416.049 196.667 417.072 195.225L393.78 175.129C392.508 179.042 391.767 182.875 391.534 186.586ZM408.827 210.009L391.985 195.475C393.497 204.41 398.24 212.382 405.754 218.699C406.619 215.709 407.646 212.813 408.827 210.009ZM396.284 168.795L420.993 190.115C423.229 187.429 425.636 184.877 428.198 182.467L401.563 159.479C399.469 162.61 397.711 165.721 396.284 168.795Z" fill="white"/>
<path d="M8.90625 380.438C7.8125 377.521 7.31771 374.005 7.42188 369.891C7.52604 365.724 8.09896 360.724 9.14062 354.891C10.2344 349.057 11.875 342.807 14.0625 336.141C19.1146 320.672 25.9896 307 34.6875 295.125C36.1979 293.094 37.7604 292.078 39.375 292.078C41.0417 292.078 42.6562 292.443 44.2188 293.172C45.8333 293.901 47.2396 294.76 48.4375 295.75C51.4583 298.25 52.4479 300.281 51.4062 301.844C44.0625 313.615 38.0469 324.24 33.3594 333.719C45.1823 332.885 55.599 329.135 64.6094 322.469C74.4531 315.229 79.375 306.427 79.375 296.062C79.375 289.031 75.8854 284.552 68.9062 282.625C66.7708 282.052 64.2188 281.766 61.25 281.766C58.3333 281.766 55.2865 282.078 52.1094 282.703C48.9844 283.276 45.9635 284.083 43.0469 285.125C37.2656 287.26 31.9792 290.073 27.1875 293.562C25.8333 294.552 24.5833 295.047 23.4375 295.047C22.2917 295.047 21.0417 294.76 19.6875 294.188C18.3333 293.562 17.1354 292.807 16.0938 291.922C12.0312 288.484 12.6042 284.917 17.8125 281.219C25.3646 275.906 36.5104 272.469 51.25 270.906C54.0104 270.646 57.6823 270.516 62.2656 270.516C66.901 270.516 71.6146 271.271 76.4062 272.781C81.25 274.292 85.1302 276.323 88.0469 278.875C93.4115 283.667 96.0938 290.333 96.0938 298.875C96.0938 306.583 93.0469 314.188 86.9531 321.688C81.3802 328.615 74.1927 334.24 65.3906 338.562C69.6094 340.438 72.7604 343.068 74.8438 346.453C76.9792 349.786 77.9948 353.406 77.8906 357.312C77.7865 361.167 77.0052 364.734 75.5469 368.016C74.1406 371.245 72.2135 374.188 69.7656 376.844C67.3698 379.448 64.5573 381.766 61.3281 383.797C58.151 385.776 54.7917 387.417 51.25 388.719C44.0104 391.427 36.6667 392.781 29.2188 392.781C18.75 392.781 11.9792 388.667 8.90625 380.438ZM27.8125 346.375C23.8542 356.219 21.7708 364.786 21.5625 372.078C21.4583 375.62 22.3177 378.354 24.1406 380.281C26.0156 382.156 28.5677 383.094 31.7969 383.094C35.026 383.094 38.3594 382.391 41.7969 380.984C45.2344 379.578 48.3854 377.677 51.25 375.281C57.8125 369.76 61.1979 363.51 61.4062 356.531C61.5625 350.177 58.6979 345.854 52.8125 343.562C51.0417 342.885 49.1406 342.443 47.1094 342.234C44.6615 342.339 41.224 342.964 36.7969 344.109C32.4219 345.255 29.4271 346.01 27.8125 346.375ZM154.219 371.219C154.219 376.01 155.911 378.406 159.297 378.406C161.641 378.406 163.568 378.042 165.078 377.312C166.641 376.583 167.682 376.219 168.203 376.219C169.297 376.219 169.844 376.792 169.844 377.938C169.844 382.417 167.5 386.271 162.812 389.5C157.865 392.885 152.812 393.719 147.656 392C144.271 390.802 141.771 388.224 140.156 384.266C139.375 382.234 138.984 380.385 138.984 378.719C138.984 376.01 139.245 373.146 139.766 370.125C134.922 380.021 128.906 386.844 121.719 390.594C118.854 392.052 115.807 392.781 112.578 392.781C109.349 392.781 106.536 392.13 104.141 390.828C101.797 389.474 99.7917 387.625 98.125 385.281C94.7396 380.385 93.2031 374.24 93.5156 366.844C93.8281 357.573 96.5625 348.484 101.719 339.578C106.458 331.245 112.448 324.448 119.688 319.188C126.927 313.823 133.698 311.141 140 311.141C146.302 311.141 151.38 314.031 155.234 319.812C158.828 314.031 162.005 311.141 164.766 311.141C167.734 311.141 169.974 311.688 171.484 312.781C174.349 314.865 175.365 316.688 174.531 318.25C161.458 345.021 154.74 361.688 154.375 368.25C154.271 369.188 154.219 370.177 154.219 371.219ZM110.859 371.531C110.859 377.781 112.865 380.906 116.875 380.906C119.948 380.906 123.724 378.302 128.203 373.094C134.766 365.438 140.573 355.125 145.625 342.156C147.24 338.094 148.594 334.031 149.688 329.969C149.479 326.427 147.995 323.823 145.234 322.156C144.297 321.583 142.891 321.297 141.016 321.297C139.193 321.297 137.031 321.974 134.531 323.328C132.083 324.682 129.688 326.531 127.344 328.875C125.052 331.219 122.891 334.005 120.859 337.234C118.88 340.411 117.135 343.875 115.625 347.625C112.448 355.646 110.859 363.615 110.859 371.531ZM184.453 388.875C183.151 387.521 182.083 385.802 181.25 383.719C180.469 381.583 180.078 379.135 180.078 376.375C180.078 373.562 180.703 369.812 181.953 365.125C183.255 360.438 184.896 355.099 186.875 349.109L193.438 329.656C202.76 302.573 208.151 281.635 209.609 266.844C210.078 262.469 212.214 260.281 216.016 260.281C218.411 260.281 220.391 260.854 221.953 262C224.974 264.292 226.432 266.844 226.328 269.656C226.224 272.469 225.729 275.906 224.844 279.969C223.958 283.979 222.812 288.38 221.406 293.172C220 297.911 218.385 302.938 216.562 308.25L205.781 339.969C199.583 357.99 196.484 369.63 196.484 374.891C196.484 377.703 197.63 379.109 199.922 379.109C202.109 379.109 204.089 378.641 205.859 377.703C207.682 376.766 208.854 376.297 209.375 376.297C210.469 376.297 211.016 376.844 211.016 377.938C211.016 382.573 208.646 386.453 203.906 389.578C200.729 391.714 197.812 392.781 195.156 392.781C192.552 392.781 190.443 392.469 188.828 391.844C187.214 391.219 185.755 390.229 184.453 388.875ZM270.781 371.531C272.292 371.531 273.047 372.547 273.047 374.578C273.047 376.297 272.526 377.964 271.484 379.578C270.078 382.599 267.266 385.464 263.047 388.172C258.255 391.245 253.438 392.781 248.594 392.781C240.208 392.781 234.896 389.031 232.656 381.531C230 372.625 233.984 353.745 244.609 324.891C238.62 324.37 235.365 323.328 234.844 321.766C234.688 321.297 234.609 320.802 234.609 320.281C234.609 319.708 234.844 319.057 235.312 318.328C235.833 317.599 236.484 316.896 237.266 316.219C239.089 314.708 240.938 313.953 242.812 313.953H248.984C254.609 300.776 258.62 293.276 261.016 291.453C262.161 290.62 263.438 290.203 264.844 290.203C266.25 290.203 267.422 290.385 268.359 290.75C269.297 291.115 270.13 291.635 270.859 292.312C272.526 293.875 273.359 295.62 273.359 297.547C273.359 298.589 273.047 299.786 272.422 301.141L266.641 313.719H268.516C271.745 313.719 274.349 313.693 276.328 313.641C276.328 313.641 277.812 313.615 280.781 313.562C281.771 313.51 282.995 313.484 284.453 313.484C285.964 313.484 286.719 314.031 286.719 315.125C286.719 322 278.594 325.438 262.344 325.438H261.719L256.406 339.188C250.417 355.438 247.422 366.818 247.422 373.328C247.422 375.151 247.839 376.583 248.672 377.625C249.505 378.615 251.068 379.109 253.359 379.109C255.651 379.109 257.734 378.719 259.609 377.938C261.484 377.156 263.125 376.297 264.531 375.359C265.938 374.37 267.135 373.484 268.125 372.703C269.167 371.922 270.052 371.531 270.781 371.531ZM325 292.859C323.854 294.057 322.552 295.047 321.094 295.828C319.635 296.557 318.099 297.026 316.484 297.234C314.87 297.391 313.333 297.13 311.875 296.453C310.469 295.776 309.245 294.812 308.203 293.562C305.964 290.958 304.844 288.328 304.844 285.672C304.844 283.016 305.26 281.036 306.094 279.734C306.979 278.38 308.073 277.286 309.375 276.453C311.875 274.839 314.219 274.031 316.406 274.031C318.646 274.031 320.365 274.188 321.562 274.5C322.812 274.812 323.958 275.333 325 276.062C327.552 277.781 328.828 279.891 328.828 282.391C328.828 284.839 328.464 286.896 327.734 288.562C327.057 290.177 326.146 291.609 325 292.859ZM308.984 377.391C310.339 377.391 311.016 378.276 311.016 380.047C311.016 382.391 309.948 384.812 307.812 387.312C304.688 390.958 300.495 392.781 295.234 392.781C289.193 392.781 285.052 390.333 282.812 385.438C281.979 383.719 281.562 381.635 281.562 379.188C281.562 376.74 281.979 374.031 282.812 371.062C283.698 368.042 284.766 364.891 286.016 361.609C287.318 358.276 288.724 354.917 290.234 351.531L294.375 341.688C297.396 334.344 298.906 329.5 298.906 327.156C298.906 324.812 298.646 323.276 298.125 322.547C297.656 321.766 297.135 321.167 296.562 320.75L295 319.656C294.479 319.292 294.219 318.667 294.219 317.781C294.219 316.844 294.557 315.958 295.234 315.125C295.964 314.292 296.901 313.562 298.047 312.938C300.391 311.74 303.125 311.141 306.25 311.141C313.906 311.141 317.734 313.146 317.734 317.156C317.734 321.844 316.51 327.208 314.062 333.25C311.615 339.24 309.531 344.083 307.812 347.781L303.125 358.562C299.688 366.479 297.969 372.182 297.969 375.672C297.969 377.964 299.115 379.109 301.406 379.109C303.646 379.109 305.339 378.823 306.484 378.25C307.63 377.677 308.464 377.391 308.984 377.391ZM328.281 365.047C328.385 360.516 329.089 356.01 330.391 351.531C331.745 347 333.516 342.729 335.703 338.719C337.943 334.708 340.573 331.01 343.594 327.625C346.667 324.24 350 321.323 353.594 318.875C361.094 313.719 368.984 311.141 377.266 311.141C385.807 311.141 391.615 314.552 394.688 321.375C395.781 323.823 396.276 326.609 396.172 329.734C396.12 332.807 395.625 335.646 394.688 338.25C393.75 340.802 392.578 343.094 391.172 345.125C387.995 349.708 384.792 352 381.562 352C377.969 352 375.312 351.01 373.594 349.031C372.083 347.312 371.615 345.307 372.188 343.016C372.344 342.339 372.812 341.74 373.594 341.219C374.375 340.646 375.365 339.76 376.562 338.562C379.948 335.021 381.719 330.88 381.875 326.141C381.979 322.911 380 321.297 375.938 321.297C371.562 321.297 366.979 323.745 362.188 328.641C355.208 335.776 350.286 344.917 347.422 356.062C344.922 365.75 345.391 372.833 348.828 377.312C350.859 379.917 353.62 381.219 357.109 381.219C362.995 381.219 368.672 379.135 374.141 374.969C375.807 373.667 377.161 372.339 378.203 370.984C379.245 369.63 380.208 368.953 381.094 368.953C381.979 368.953 382.708 369.396 383.281 370.281C383.906 371.115 384.219 372.208 384.219 373.562C384.219 376.635 382.839 379.656 380.078 382.625C372.995 389.396 364.479 392.781 354.531 392.781C346.042 392.781 339.479 390.359 334.844 385.516C330.26 380.724 328.073 373.901 328.281 365.047ZM712.5 361.609L711.797 367.625C711.797 373.927 713.906 378.224 718.125 380.516C719.583 381.297 721.328 381.688 723.359 381.688C725.391 381.688 727.214 381.349 728.828 380.672C730.443 379.943 731.771 379.005 732.812 377.859C735 375.516 736.094 372.807 736.094 369.734C736.094 366.661 735.469 363.875 734.219 361.375C732.969 358.875 731.406 356.375 729.531 353.875L723.281 346.219C718.229 340.177 714.844 334.682 713.125 329.734C711.406 324.734 710.547 320.151 710.547 315.984C710.547 311.818 711.042 307.885 712.031 304.188C713.073 300.438 714.505 296.896 716.328 293.562C718.151 290.177 720.339 287.078 722.891 284.266C725.443 281.453 728.281 279.031 731.406 277C737.917 272.625 744.375 270.438 750.781 270.438C757.188 270.438 762.188 271.323 765.781 273.094C769.375 274.865 772.266 277.104 774.453 279.812C778.516 284.917 780.547 291.089 780.547 298.328C780.547 305.047 778.646 311.375 774.844 317.312C771.354 322.729 767.448 326.167 763.125 327.625C762.188 328.094 760.885 328.328 759.219 328.328C757.604 328.328 756.224 328.094 755.078 327.625C753.984 327.104 753.021 326.427 752.188 325.594C750.365 323.771 749.453 321.792 749.453 319.656C749.453 318.198 749.896 317.234 750.781 316.766C754.74 314.63 758.177 311.531 761.094 307.469C764.271 303.042 765.938 298.641 766.094 294.266C766.25 289.839 765.182 286.583 762.891 284.5C760.651 282.365 757.656 281.297 753.906 281.297C750.156 281.297 746.771 282.156 743.75 283.875C740.729 285.542 738.125 287.807 735.938 290.672C731.25 296.818 728.906 304.083 728.906 312.469C728.906 318.042 730.833 323.927 734.688 330.125C736.302 332.781 738.047 335.411 739.922 338.016C741.849 340.568 743.646 343.198 745.312 345.906C749.115 352.208 751.016 357.859 751.016 362.859C751.016 367.859 750.104 372.078 748.281 375.516C746.51 378.953 744.141 381.948 741.172 384.5C734.766 390.021 727.474 392.781 719.297 392.781C711.589 392.781 705.651 390.49 701.484 385.906C698.151 382.208 696.484 378.198 696.484 373.875C696.484 369.188 697.812 365.229 700.469 362C702.5 359.552 704.453 358.094 706.328 357.625C710.443 356.531 712.5 357.859 712.5 361.609ZM819.844 371.531C821.354 371.531 822.109 372.547 822.109 374.578C822.109 376.297 821.589 377.964 820.547 379.578C819.141 382.599 816.328 385.464 812.109 388.172C807.318 391.245 802.5 392.781 797.656 392.781C789.271 392.781 783.958 389.031 781.719 381.531C779.062 372.625 783.047 353.745 793.672 324.891C787.682 324.37 784.427 323.328 783.906 321.766C783.75 321.297 783.672 320.802 783.672 320.281C783.672 319.708 783.906 319.057 784.375 318.328C784.896 317.599 785.547 316.896 786.328 316.219C788.151 314.708 790 313.953 791.875 313.953H798.047C803.672 300.776 807.682 293.276 810.078 291.453C811.224 290.62 812.5 290.203 813.906 290.203C815.312 290.203 816.484 290.385 817.422 290.75C818.359 291.115 819.193 291.635 819.922 292.312C821.589 293.875 822.422 295.62 822.422 297.547C822.422 298.589 822.109 299.786 821.484 301.141L815.703 313.719H817.578C820.807 313.719 823.411 313.693 825.391 313.641C825.391 313.641 826.875 313.615 829.844 313.562C830.833 313.51 832.057 313.484 833.516 313.484C835.026 313.484 835.781 314.031 835.781 315.125C835.781 322 827.656 325.438 811.406 325.438H810.781L805.469 339.188C799.479 355.438 796.484 366.818 796.484 373.328C796.484 375.151 796.901 376.583 797.734 377.625C798.568 378.615 800.13 379.109 802.422 379.109C804.714 379.109 806.797 378.719 808.672 377.938C810.547 377.156 812.188 376.297 813.594 375.359C815 374.37 816.198 373.484 817.188 372.703C818.229 371.922 819.115 371.531 819.844 371.531ZM839.141 386.688C836.953 384.604 835.234 381.974 833.984 378.797C832.734 375.568 832.083 371.766 832.031 367.391C831.979 363.016 832.5 358.589 833.594 354.109C834.74 349.63 836.328 345.307 838.359 341.141C840.443 336.974 842.917 333.068 845.781 329.422C848.698 325.776 851.901 322.599 855.391 319.891C862.995 314.057 870.885 311.141 879.062 311.141C889.792 311.141 897.057 315.854 900.859 325.281C903.568 332.104 903.724 340.359 901.328 350.047C899.141 358.953 895.13 367.13 889.297 374.578C883.516 382.026 876.693 387.312 868.828 390.438C864.87 392 860.964 392.781 857.109 392.781C853.307 392.781 849.896 392.286 846.875 391.297C843.906 390.307 841.328 388.771 839.141 386.688ZM854.062 348.797C852.5 352.651 851.25 356.609 850.312 360.672C849.427 364.734 849.01 368.589 849.062 372.234C849.115 375.828 849.661 378.667 850.703 380.75C851.797 382.781 853.542 383.797 855.938 383.797C858.333 383.797 860.677 382.99 862.969 381.375C865.312 379.708 867.578 377.521 869.766 374.812C871.953 372.104 874.01 368.979 875.938 365.438C877.865 361.896 879.557 358.198 881.016 354.344C884.193 345.958 885.729 338.51 885.625 332C885.625 326.271 884.453 322.625 882.109 321.062C881.172 320.438 879.844 320.125 878.125 320.125C876.458 320.125 874.531 320.906 872.344 322.469C870.156 323.979 867.969 326.036 865.781 328.641C863.594 331.245 861.484 334.292 859.453 337.781C857.422 341.271 855.625 344.943 854.062 348.797ZM914.531 390.125C913.49 389.344 912.656 388.484 912.031 387.547C911.406 386.557 911.068 385.724 911.016 385.047C910.964 384.318 911.094 383.458 911.406 382.469C911.771 381.427 912.24 380.177 912.812 378.719C923.438 352.573 928.75 335.021 928.75 326.062C928.594 323.562 927.734 321.792 926.172 320.75L924.609 319.656C924.141 319.292 923.88 318.667 923.828 317.781C923.828 316.844 924.167 315.958 924.844 315.125C925.521 314.292 926.406 313.562 927.5 312.938C929.74 311.74 932.031 311.141 934.375 311.141C936.771 311.141 938.62 311.401 939.922 311.922C941.276 312.443 942.422 313.146 943.359 314.031C945.339 315.906 946.328 317.885 946.328 319.969C946.38 322.052 946.146 324.161 945.625 326.297C945.156 328.432 944.583 330.542 943.906 332.625C943.229 334.656 942.552 336.609 941.875 338.484C941.198 340.307 940.755 341.661 940.547 342.547C940.13 344.37 939.974 345.516 940.078 345.984C941.328 344.891 942.083 343.823 942.344 342.781L945.391 337C952.161 324.812 958.776 316.74 965.234 312.781C967.109 311.688 969.349 311.141 971.953 311.141C974.609 311.141 976.745 312.078 978.359 313.953C979.974 315.776 980.807 317.807 980.859 320.047C980.964 322.286 980.807 324.161 980.391 325.672C980.026 327.13 979.453 328.51 978.672 329.812C976.953 332.729 974.87 334.188 972.422 334.188C971.745 334.188 971.12 333.953 970.547 333.484L968.828 332C967.109 330.49 965.443 329.734 963.828 329.734C962.266 329.734 960.339 330.776 958.047 332.859C955.807 334.943 953.464 337.625 951.016 340.906C942.786 351.792 936.068 363.979 930.859 377.469L927.422 386.531C926.536 388.771 925.755 390.385 925.078 391.375C924.401 392.312 923.385 392.781 922.031 392.781C920.729 392.781 919.401 392.521 918.047 392C916.745 391.531 915.573 390.906 914.531 390.125ZM980.312 364.656C980.521 360.125 981.276 355.802 982.578 351.688C983.88 347.521 985.625 343.51 987.812 339.656C990 335.75 992.552 332.078 995.469 328.641C998.438 325.151 1001.64 322.104 1005.08 319.5C1012.53 313.927 1020.05 311.141 1027.66 311.141C1036.56 311.141 1042.5 314.812 1045.47 322.156C1046.51 324.656 1047.01 327.625 1046.95 331.062C1046.9 334.448 1046.25 337.599 1045 340.516C1043.75 343.38 1042.01 346.01 1039.77 348.406C1037.58 350.75 1034.95 352.859 1031.88 354.734C1028.85 356.609 1025.55 358.198 1021.95 359.5C1014.56 362.104 1006.64 363.458 998.203 363.562C997.995 364.292 997.865 365.385 997.812 366.844C997.76 368.302 997.917 369.943 998.281 371.766C998.646 373.536 999.271 375.125 1000.16 376.531C1002.03 379.656 1004.74 381.219 1008.28 381.219C1014.32 381.219 1020.21 379.448 1025.94 375.906C1027.97 374.708 1029.61 373.484 1030.86 372.234C1032.16 370.932 1033.28 370.281 1034.22 370.281C1035.16 370.281 1035.96 370.854 1036.64 372C1037.37 373.094 1037.73 374.344 1037.73 375.75C1037.73 378.51 1036.95 380.906 1035.39 382.938C1028.83 389.5 1019.06 392.781 1006.09 392.781C998.438 392.781 992.292 390.49 987.656 385.906C982.448 380.698 980 373.615 980.312 364.656ZM1025.94 321.531C1020.47 321.531 1015.21 325.281 1010.16 332.781C1005.89 339.24 1002.45 346.896 999.844 355.75C1008.54 354.865 1016.09 351.427 1022.5 345.438C1028.39 339.812 1031.33 334.422 1031.33 329.266C1031.33 324.109 1029.53 321.531 1025.94 321.531Z" fill="white"/>
</svg>
